<svg version="1" xmlns="http://www.w3.org/2000/svg" width="1280" height="1280" viewBox="0 0 960.000000 960.000000"><path d="M129.5.7c-26.9 3.5-51.6 13.2-71.6 28.2C45.2 38.5 39.1 44.7 25.7 62c-2.2 2.7-9.3 15.4-12.2 21.5-4.9 10.6-9.9 26.7-11.1 35.9-.4 2.2-1 6.1-1.5 8.6-1.2 6.4-1.1 698.2.2 704.5.5 2.7 1.1 6.6 1.3 8.5.9 8.1 5.9 24.1 11.4 36.1 10.5 22.9 29.9 45.2 51.7 59.4 13 8.5 36.4 18.2 48.3 20.1 2 .3 4 .8 4.3 1 2.7 1.6 59.3 1.9 365.4 1.9 334 0 349.4-.1 358-1.8 33.2-6.8 60.6-22.2 81.7-46.1 17.2-19.5 27.8-40.4 34-67.2l2.3-9.9.2-351c.1-194.1-.2-353-.6-355.5-.5-2.5-1.2-6.7-1.6-9.4-.3-2.7-.8-5.3-1-5.6-.2-.4-.7-2.1-1-3.9-1.6-8.9-9.8-28.7-16.6-39.8-8.6-14-24.7-31.8-35.9-39.8-3-2.2-5.7-4.2-6-4.5-1-1.2-12.8-7.7-20-11.2-7.5-3.6-24-9.2-30.2-10.3C828.3.1 834.8.1 480 .2 288.9.3 131.2.5 129.5.7z"/></svg>