<svg xmlns="http://www.w3.org/2000/svg" viewBox="0 0 260 88">
    <defs>
        <style>
            .cls-1{fill:none}.cls-2{fill:#fff;fill-rule:evenodd}
        </style>
    </defs>
    <g id="logo_4bill" transform="translate(-415 -3866)">
        <rect id="Rectangle_911" width="260" height="88" class="cls-1" data-name="Rectangle 911" rx="16" transform="translate(415 3866)"/>
        <g id="logo-4bill" transform="translate(468.978 3881.013)">
            <path id="Path_934" d="M57.62 43.843a38.387 38.387 0 0 0 8.634-10.478c3.687-1.261 8.537-2.619 11.351-2.231 2.425.388 1.746 2.716 1.261 4.366a77.25 77.25 0 0 1-17.171 16.4c-1.455.776-4.075 1.649-4.56-.582-.388-1.649-.1-4.269.485-7.47zM67.613 9.4c2.813-9.119-14.164-8.052-16.978.97-2.522 8.052-7.761 30.366-5.918 40.746 1.261 7.47 11.06 4.657 14.358 2.522-9.9 2.231 6.306-37.157 8.537-44.239zm-45.6 40.164c.194-.485.388-1.261.679-2.037A128.847 128.847 0 0 0 40.64 42.87a78.751 78.751 0 0 1-1.649 5.724c-2.716 9.022-19.791 10.09-16.978.97zm21.343-8.828c-10.963 3.784-22.6 7.082-32.209 6.4C2.419 46.559 1.254 38.6 5.135 32.3c-1.164 7.373 16.3.194 18.821-.679 6.5-2.425 14.261-5.53 22.216-8.149a126.734 126.734 0 0 0-1.94 10.866q-.582 3.2-.873 6.4zm-13.87-12.513c3.881-12.03 6.694-24.157 1.067-22.9C33.948 3.194 43.65.38 45.008 7.85c.679 3.784.388 9.216-.388 14.843-5.239 1.746-10.381 3.784-15.134 5.53zm1.94-10.478c1.067-4.366 1.552-8.052 1.067-10.187-.679-2.134-3.1-1.164-4.172-.679A112.126 112.126 0 0 0 6.59 29.776c-.582 1.552-.97 4.172 1.164 4.463 3.4.485 9.993-1.746 13.582-3.007a49.562 49.562 0 0 1 10.09-13.485zm48.9 15.522c3.784-6.306 2.619-14.164-6.015-14.843a45.3 45.3 0 0 0-8.828.291c-1.649 4.657-3.687 10.381-5.336 15.813l1.455-.582c2.421-.969 19.884-8.046 18.72-.678z" class="cls-2" data-name="Path 934"/>
            <path id="Path_935" d="M150.967 55.427a.995.995 0 0 1-.97.97h-1.358a.995.995 0 0 1-.97-.97V31.27a.995.995 0 0 1 .97-.97H150a.995.995 0 0 1 .97.97v24.157zm-8.246 0a.995.995 0 0 1-.97.97h-1.358a.995.995 0 0 1-.97-.97V31.27a.995.995 0 0 1 .97-.97h1.358a.995.995 0 0 1 .97.97v24.157zM134.766 33.4a.995.995 0 0 1-.97.97h-2.134a.995.995 0 0 1-.97-.97v-2.13a.995.995 0 0 1 .97-.97h2.138a.995.995 0 0 1 .97.97zm-.388 22.022a.995.995 0 0 1-.97.97h-1.358a.995.995 0 0 1-.97-.97V38.255a.995.995 0 0 1 .97-.97h1.358a.995.995 0 0 1 .97.97zm-22.313-6.985a5.685 5.685 0 0 0 1.649 3.784 4.973 4.973 0 0 0 3.687 1.358 4.577 4.577 0 0 0 3.784-1.552 7.005 7.005 0 0 0 1.552-4.172v-2.033a6.767 6.767 0 0 0-1.552-4.172 5.392 5.392 0 0 0-7.47-.1 6.489 6.489 0 0 0-1.649 3.978 6.424 6.424 0 0 0-.1 1.455 6.424 6.424 0 0 0 .1 1.455zm5.626-11.537a8.546 8.546 0 0 1 3.2.582 7.753 7.753 0 0 1 2.619 1.746 7.275 7.275 0 0 1 1.746 2.716 10.825 10.825 0 0 1 .776 3.687v2.328a11.346 11.346 0 0 1-.776 3.687 9.363 9.363 0 0 1-1.746 2.716 6.912 6.912 0 0 1-2.619 1.746 8.546 8.546 0 0 1-3.2.582 7.575 7.575 0 0 1-3.59-.776 6.462 6.462 0 0 1-2.134-1.746v1.162a.995.995 0 0 1-.97.97h-1.358a.995.995 0 0 1-.97-.97V31.27a.995.995 0 0 1 .97-.97H111a.995.995 0 0 1 .97.97v8.149a9.487 9.487 0 0 1 2.03-1.746 8.3 8.3 0 0 1 3.687-.776zM97.318 46.987V36.606l-7.955 10.381zm1.067 9.41a.995.995 0 0 1-.97-.97v-5.045H85.87a.995.995 0 0 1-.97-.97v-1.358a1.23 1.23 0 0 1 .1-.582 2.431 2.431 0 0 1 .388-.679L96.93 31.561a2.267 2.267 0 0 1 .679-.679 1.045 1.045 0 0 1 .776-.194h1.455a.995.995 0 0 1 .97.97v15.329h3.2a.995.995 0 0 1 .97.97v1.358a.995.995 0 0 1-.97.97h-3.2v5.045a.995.995 0 0 1-.97.97h-1.455z" class="cls-2" data-name="Path 935" transform="translate(-2.444 -.815)"/>
        </g>
    </g>
</svg>
