<svg xmlns="http://www.w3.org/2000/svg" viewBox="0 0 260 88">
    <defs>
        <style>
            .cls-1{fill:none}.cls-2{fill:#fff}
        </style>
    </defs>
    <g id="logo_ketchup" transform="translate(-691 -3866)">
        <rect id="Rectangle_912" width="260" height="88" class="cls-1" data-name="Rectangle 912" rx="16" transform="translate(691 3866)"/>
        <g id="KETCHUP_Logo" transform="translate(752 3882)">
            <g id="Group_14481" data-name="Group 14481" transform="translate(0 37.764)">
                <path id="Path_1013" d="M.284 179.513A1.575 1.575 0 0 0 0 180.624v.262a.317.317 0 0 0 .35.314.383.383 0 0 0 .345-.372v-.221a.318.318 0 0 0-.281-.339.837.837 0 0 1 .491-.849l.083-.141-.16-.149a1.255 1.255 0 0 0-.544.384z" class="cls-2" data-name="Path 1013" transform="translate(0 -167.504)"/>
                <path id="Path_1014" d="M11.6 185.315a2.246 2.246 0 0 0-1.7-.43 4.544 4.544 0 0 0-1.77.56l-.152.245.248.218.113-.041a3.725 3.725 0 0 1 1.533-.5c1.106-.1 1.773.389 1.778 1.467v.226a6.582 6.582 0 0 0-1.784-.06c-1.4.13-2.352.841-2.344 1.952v.019c0 1.106 1.084 1.569 2.09 1.478a2.712 2.712 0 0 0 2.051-1.2l.006.667a.226.226 0 0 0 .254.24.275.275 0 0 0 .251-.287l-.014-3.1a1.879 1.879 0 0 0-.56-1.454zm-1.96 4.654c-.824.074-1.566-.306-1.572-1.081v-.019c0-.739.629-1.3 1.767-1.406a6.929 6.929 0 0 1 1.825.072l.006.607a2.041 2.041 0 0 1-2.026 1.827z" class="cls-2" data-name="Path 1014" transform="translate(-5.447 -171.662)"/>
                <path id="Path_1015" d="M45.241 176.249a2.9 2.9 0 0 0-2.206 1.517l-.022-3.262a.229.229 0 0 0-.259-.237.269.269 0 0 0-.254.284l.036 7.185a.236.236 0 0 0 .265.237.286.286 0 0 0 .251-.287v-.929a2.336 2.336 0 0 0 2.222 1.07 2.974 2.974 0 0 0 2.606-3.03v-.022a2.408 2.408 0 0 0-2.639-2.526zm2.073 2.622a2.316 2.316 0 0 1-2.1 2.468 2.011 2.011 0 0 1-2.206-2.084l-.008-.023a2.5 2.5 0 0 1 2.189-2.487 1.947 1.947 0 0 1 2.123 2.107z" class="cls-2" data-name="Path 1015" transform="translate(-30.782 -163.98)"/>
                <path id="Path_1016" d="M71.526 181.824a2.294 2.294 0 0 0-2.484-2.534 2.931 2.931 0 0 0-2.539 3.016v.017a2.407 2.407 0 0 0 2.655 2.539 3 3 0 0 0 2.093-1.059l.083-.188-.256-.218-.168.091a2.629 2.629 0 0 1-1.737.888 1.921 1.921 0 0 1-2.123-1.908l4.224-.381zm-4.472.19a2.316 2.316 0 0 1 1.971-2.25c1.238-.113 1.861.824 1.941 1.894z" class="cls-2" data-name="Path 1016" transform="translate(-48.164 -167.612)"/>
                <path id="Path_1017" d="M90.685 178.506c-.623.052-1.078-.174-1.081-.94l-.017-3.438 1.685-.154.245-.251-.243-.215-1.687.152-.006-1.483a.236.236 0 0 0-.262-.24.281.281 0 0 0-.256.287l.008 1.478-.582.055-.24.251.24.218.582-.052.019 3.488a1.242 1.242 0 0 0 1.516 1.323 2.313 2.313 0 0 0 .761-.2l.165-.234-.229-.207a2.223 2.223 0 0 1-.618.162z" class="cls-2" data-name="Path 1017" transform="translate(-63.917 -162.292)"/>
                <path id="Path_1018" d="M105.973 177.123c-.626.058-1.075-.176-1.081-.937l-.022-3.436 1.69-.154.243-.251-.245-.218-1.687.152-.008-1.486a.24.24 0 0 0-.267-.234.284.284 0 0 0-.251.284l.008 1.486-.576.052-.245.251.245.218.579-.052.017 3.488a1.249 1.249 0 0 0 1.519 1.323 2.265 2.265 0 0 0 .758-.207l.165-.237-.232-.207a2.206 2.206 0 0 1-.61.165z" class="cls-2" data-name="Path 1018" transform="translate(-74.984 -161.295)"/>
                <path id="Path_1019" d="M123.959 177.04a2.3 2.3 0 0 0-2.484-2.528 2.928 2.928 0 0 0-2.542 3.011v.025a2.406 2.406 0 0 0 2.652 2.537 3.015 3.015 0 0 0 2.1-1.056l.085-.185-.254-.218-.171.088a2.64 2.64 0 0 1-1.737.888 1.921 1.921 0 0 1-2.123-1.908l4.221-.386zm-4.478.19a2.321 2.321 0 0 1 1.977-2.25c1.232-.11 1.861.824 1.938 1.891z" class="cls-2" data-name="Path 1019" transform="translate(-86.138 -164.151)"/>
                <path id="Path_1020" d="M145.3 172.476a2.877 2.877 0 0 0-2.159 1.795l-.005-1.3a.232.232 0 0 0-.265-.237.281.281 0 0 0-.251.284l.022 4.889a.232.232 0 0 0 .265.237.285.285 0 0 0 .254-.284l-.011-1.963a2.673 2.673 0 0 1 2.153-2.868.313.313 0 0 0 .273-.306.246.246 0 0 0-.276-.247z" class="cls-2" data-name="Path 1020" transform="translate(-103.296 -162.683)"/>
                <path id="Path_1021" d="M169.9 171.28c-.62.052-1.075-.179-1.084-.94l-.016-3.44 1.693-.157.234-.251-.24-.218-1.687.152-.006-1.483a.235.235 0 0 0-.267-.232.272.272 0 0 0-.251.278l.011 1.483-.585.055-.243.251.245.215.582-.05.014 3.488a1.249 1.249 0 0 0 1.519 1.326 2.621 2.621 0 0 0 .764-.207l.165-.234-.234-.212a2.224 2.224 0 0 1-.614.176z" class="cls-2" data-name="Path 1021" transform="translate(-121.287 -157.062)"/>
                <path id="Path_1022" d="M187.275 169.25a2.183 2.183 0 0 0-1.7-.43 4.608 4.608 0 0 0-1.77.562l-.143.245.24.218.119-.047a3.854 3.854 0 0 1 1.527-.494c1.108-.1 1.776.392 1.781 1.467V171a6.265 6.265 0 0 0-1.781-.066c-1.392.127-2.355.838-2.344 1.949v.019c0 1.111 1.084 1.574 2.087 1.483a2.731 2.731 0 0 0 2.054-1.2l.006.667a.22.22 0 0 0 .254.237.267.267 0 0 0 .251-.284l-.014-3.1a1.863 1.863 0 0 0-.567-1.455zm-1.96 4.654c-.819.074-1.563-.3-1.563-1.075v-.025c-.011-.739.626-1.3 1.765-1.406a6.894 6.894 0 0 1 1.823.074l.008.607a2.057 2.057 0 0 1-2.033 1.821z" class="cls-2" data-name="Path 1022" transform="translate(-132.687 -160.025)"/>
                <path id="Path_1023" d="M207.458 169.317c-.772-.149-1.5-.3-1.5-.9v-.019c0-.535.48-.973 1.221-1.039a2.8 2.8 0 0 1 1.5.3l.152.03.254-.273-.141-.218a3.409 3.409 0 0 0-1.74-.323 1.744 1.744 0 0 0-1.765 1.635v.022c.006.948.976 1.117 1.85 1.29.755.143 1.428.306 1.434.937v.022c0 .618-.568 1.064-1.3 1.13a2.852 2.852 0 0 1-1.795-.438l-.171-.041-.254.273.1.19a3.531 3.531 0 0 0 2.093.5 1.842 1.842 0 0 0 1.85-1.723v-.022c-.012-.944-.925-1.175-1.788-1.333z" class="cls-2" data-name="Path 1023" transform="translate(-148.621 -158.618)"/>
                <path id="Path_1024" d="M225.853 166.153c-.62.052-1.078-.176-1.078-.937l-.022-3.436 1.693-.16.234-.248-.243-.218-1.69.154-.008-1.483a.238.238 0 0 0-.265-.237.275.275 0 0 0-.248.284l.008 1.486-.59.05-.234.254.24.221.585-.052.017 3.485a1.248 1.248 0 0 0 1.516 1.326 2.41 2.41 0 0 0 .755-.2l.168-.237-.234-.21a2.123 2.123 0 0 1-.604.158z" class="cls-2" data-name="Path 1024" transform="translate(-161.81 -153.349)"/>
                <path id="Path_1025" d="M243.844 166.072a2.294 2.294 0 0 0-2.484-2.531 2.932 2.932 0 0 0-2.539 3.014v.022a2.41 2.41 0 0 0 2.652 2.537 3.077 3.077 0 0 0 2.1-1.062l.08-.185-.256-.218-.168.091a2.635 2.635 0 0 1-1.74.888 1.919 1.919 0 0 1-2.123-1.9l4.224-.389zm-4.475.193a2.317 2.317 0 0 1 1.971-2.253c1.235-.11 1.861.822 1.941 1.891z" class="cls-2" data-name="Path 1025" transform="translate(-172.971 -156.204)"/>
                <path id="Path_1026" d="M273.477 154.959v-.5c-.011-.91.339-1.381 1.075-1.448a3.29 3.29 0 0 1 .551.008.259.259 0 0 0 .3-.243l-.2-.226a2.854 2.854 0 0 0-.645-.011 1.69 1.69 0 0 0-1.128.521 2.067 2.067 0 0 0-.463 1.431v.521l-.579.055-.24.254.237.215.585-.052.019 4.638a.247.247 0 0 0 .27.24.286.286 0 0 0 .254-.289l-.025-4.635 1.679-.154.243-.251-.248-.218z" class="cls-2" data-name="Path 1026" transform="translate(-197.104 -148.232)"/>
                <path id="Path_1027" d="M288.906 159.129a3.086 3.086 0 0 0-2.763 3.047v.025a2.48 2.48 0 0 0 2.771 2.515 3.065 3.065 0 0 0 2.757-3.041v-.028a2.476 2.476 0 0 0-2.765-2.518zm2.211 2.614a2.451 2.451 0 0 1-2.184 2.487 2.025 2.025 0 0 1-2.228-2.1v-.017a2.449 2.449 0 0 1 2.184-2.493 2.028 2.028 0 0 1 2.228 2.1z" class="cls-2" data-name="Path 1027" transform="translate(-207.244 -153.009)"/>
                <path id="Path_1028" d="M314.626 156.986a2.874 2.874 0 0 0-2.159 1.8l-.008-1.3a.227.227 0 0 0-.265-.234.29.29 0 0 0-.254.281l.028 4.894a.226.226 0 0 0 .262.232.274.274 0 0 0 .251-.284l-.011-1.966a2.671 2.671 0 0 1 2.151-2.857.308.308 0 0 0 .276-.309.241.241 0 0 0-.271-.257z" class="cls-2" data-name="Path 1028" transform="translate(-225.93 -151.464)"/>
                <path id="Path_1029" d="M339.224 147.137a.278.278 0 0 0-.254.284l.041 7.185a.227.227 0 0 0 .265.234.271.271 0 0 0 .254-.284l-.036-7.185a.242.242 0 0 0-.27-.234z" class="cls-2" data-name="Path 1029" transform="translate(-245.508 -144.331)"/>
                <path id="Path_1030" d="M349.758 153.577a3.082 3.082 0 0 0-2.766 3.047v.017a2.473 2.473 0 0 0 2.771 2.515 3.071 3.071 0 0 0 2.76-3.044v-.017a2.471 2.471 0 0 0-2.765-2.518zm.025 5.093a2.029 2.029 0 0 1-2.231-2.1v-.025a2.453 2.453 0 0 1 2.189-2.487 2.026 2.026 0 0 1 2.222 2.107v.019a2.441 2.441 0 0 1-2.18 2.486z" class="cls-2" data-name="Path 1030" transform="translate(-251.316 -148.988)"/>
                <path id="Path_1031" d="M374.923 151.108l-.256.21-1.853 4.789-2.178-4.4c-.052-.11-.113-.2-.273-.182a.289.289 0 0 0-.273.287l.041.149 2.435 4.7-.033.077c-.342.824-.7 1.243-1.293 1.3a1.854 1.854 0 0 1-.687-.041l-.168-.028-.24.262.149.2a2.519 2.519 0 0 0 .924.085c.767-.072 1.312-.518 1.781-1.679l2.162-5.357.03-.141a.24.24 0 0 0-.268-.231z" class="cls-2" data-name="Path 1031" transform="translate(-268.047 -147.207)"/>
                <path id="Path_1032" d="M395.756 150.19a2.209 2.209 0 0 0-1.7-.43 4.528 4.528 0 0 0-1.776.562l-.143.243.24.218.119-.041a3.674 3.674 0 0 1 1.528-.5c1.106-.1 1.778.392 1.781 1.467v.229a6.273 6.273 0 0 0-1.784-.066c-1.392.127-2.346.841-2.344 1.952v.017c.008 1.108 1.086 1.572 2.09 1.483a2.722 2.722 0 0 0 2.051-1.2v.673a.218.218 0 0 0 .254.232.263.263 0 0 0 .251-.281l-.017-3.107a1.843 1.843 0 0 0-.55-1.451zm-1.966 4.651c-.822.077-1.563-.3-1.566-1.081v-.022c-.011-.742.623-1.293 1.765-1.4a6.774 6.774 0 0 1 1.823.077l.008.6a2.056 2.056 0 0 1-2.03 1.826z" class="cls-2" data-name="Path 1032" transform="translate(-283.677 -146.22)"/>
                <path id="Path_1033" d="M415.684 140.137a.28.28 0 0 0-.254.287l.036 7.185a.228.228 0 0 0 .267.232.269.269 0 0 0 .254-.284l-.039-7.185a.239.239 0 0 0-.264-.235z" class="cls-2" data-name="Path 1033" transform="translate(-300.886 -139.261)"/>
                <path id="Path_1034" d="M425.23 147.923c-.626.058-1.075-.176-1.081-.935l-.017-3.438 1.687-.154.243-.251-.243-.218-1.69.154-.006-1.486a.241.241 0 0 0-.27-.237.275.275 0 0 0-.245.284l.008 1.483-.585.052-.243.248.24.223.582-.055.025 3.488a1.245 1.245 0 0 0 1.519 1.326 2.482 2.482 0 0 0 .756-.207l.168-.232-.234-.207a2.6 2.6 0 0 1-.614.162z" class="cls-2" data-name="Path 1034" transform="translate(-306.216 -140.146)"/>
                <path id="Path_1035" d="M443.323 144.848l-.251.212-1.858 4.789-2.175-4.4c-.052-.113-.116-.2-.273-.187a.3.3 0 0 0-.276.289l.041.152 2.435 4.7-.033.077c-.342.822-.7 1.243-1.29 1.3a1.709 1.709 0 0 1-.687-.047l-.168-.025-.243.256.152.212a2.446 2.446 0 0 0 .918.083c.769-.072 1.318-.521 1.787-1.679l2.156-5.36.03-.141a.237.237 0 0 0-.265-.231z" class="cls-2" data-name="Path 1035" transform="translate(-317.588 -142.673)"/>
                <path id="Path_1036" d="M462.264 137.536v-.259a.313.313 0 0 0-.35-.312.389.389 0 0 0-.345.378v.218a.315.315 0 0 0 .287.339.862.862 0 0 1-.494.855l-.083.141.157.143a1.393 1.393 0 0 0 .546-.383 1.578 1.578 0 0 0 .282-1.12z" class="cls-2" data-name="Path 1036" transform="translate(-334.094 -136.964)"/>
            </g>
            <path id="Path_1037" d="M137.862 13.53V6.565a6.491 6.491 0 0 0-7.221-6.537L127.1.336l-2.209.19-6.127.532a1.148 1.148 0 0 0-.653.278 1.483 1.483 0 0 0-.416-.185l-5.093.441a9.732 9.732 0 0 1 .4 2.131c.088 1.453.08 9.033-.755 12.231-.8 3.05-2.153 8.969-1.594 11.283h.006a.215.215 0 0 1 .24.221v1.177a.6.6 0 0 1-.538.576l-2.931.254-2.931.256a.486.486 0 0 1-.538-.485v-1.175a.27.27 0 0 1 .243-.262h.006c.56-2.41-.8-8.1-1.591-11.01-.838-3.05-.844-10.632-.758-12.1a11.087 11.087 0 0 1 .4-2.2l-5.051.438a1.943 1.943 0 0 0-.339.2 1.01 1.01 0 0 0-.582-.121l-8.335.722a1.186 1.186 0 0 0-1.07 1.153v10.24l-.6.052V4.933a.969.969 0 0 0-1.073-.971l-8.311.731a1.2 1.2 0 0 0-1.073 1.155v3.844s-1.977-5.358-9.645-4.958c0 0-6.821.345-9.8 5.184v-2.38a.963.963 0 0 0-1.07-.968L13.2 10.224a1.192 1.192 0 0 0-1 .791l-.033.08-1.53 4.795v-4.384a.964.964 0 0 0-1.07-.971l-8.492.739A1.189 1.189 0 0 0 0 12.43v32.645a.964.964 0 0 0 1.073.968l8.49-.739a1.185 1.185 0 0 0 1.07-1.155v-4.583l1.4 4.693.033.08a.957.957 0 0 0 1.017.661l.993-.088 2.652-.229 10.147-.88 3.565-.309 6.149-.535a1.187 1.187 0 0 0 1.07-1.155V35.08a.964.964 0 0 0-1.07-.971l-5.082.441v-4.982l4.1-.356a1.189 1.189 0 0 0 1.07-1.155v-6.051a.962.962 0 0 0-1.07-.968l-4.1.356v-4.07l9.361-.813v25.014a.963.963 0 0 0 1.07.968l8.556-.744a1.185 1.185 0 0 0 1.07-1.155V15.586l3.295-.29v17.046s-.535 8.8 9.893 8.429c0 0 8.233.168 11.07-6.888v4.604a.962.962 0 0 0 1.07.968l8.335-.725a1.185 1.185 0 0 0 1.07-1.155V24.542l.6-.052v13.031a.962.962 0 0 0 1.07.968l8.338-.722a1.189 1.189 0 0 0 1.073-1.155l-.006-.069v-4.434c.565 1.332 2.931 5.561 10.006 4.991l.2-.017c8.228-.786 10.061-6.948 10.116-7.139v4.9a.964.964 0 0 0 1.07.971l8.332-.722a1.189 1.189 0 0 0 1.07-1.153V21.529l2.47-.215a7.984 7.984 0 0 0 7.226-7.784zM17.387 25.2L20.9 14.189V36.95zm56.606-.882l-.869.074-5.967.518a1.182 1.182 0 0 0-1.07 1.153v6.579a.5.5 0 0 1-.488.441.41.41 0 0 1-.494-.356v-19.86a.5.5 0 0 1 .491-.436.4.4 0 0 1 .488.353V20.693a.965.965 0 0 0 1.07.971l5.967-.518.871-.074 1.834-.16v3.248z" class="cls-2" data-name="Path 1037"/>
        </g>
    </g>
</svg>
