<svg xmlns="http://www.w3.org/2000/svg" viewBox="0 0 260 88">
    <defs>
        <style>
            .cls-1{fill:none}.cls-2{fill:#fff}
        </style>
    </defs>
    <g id="logo_mc" transform="translate(-139 -3762)">
        <rect id="Rectangle_907" width="260" height="88" class="cls-1" data-name="Rectangle 907" rx="16" transform="translate(139 3762)"/>
        <g id="Group_14545" data-name="Group 14545" transform="translate(99.269 680.632)">
            <path id="Path_879" d="M201.063 53.556v-8.942a5.316 5.316 0 0 0-5.616-5.675 5.526 5.526 0 0 0-5.013 2.539 5.24 5.24 0 0 0-4.715-2.539 4.721 4.721 0 0 0-4.173 2.122v-1.788h-3.106v14.283h3.136v-7.911c0-2.48 1.371-3.791 3.493-3.791s3.106 1.341 3.106 3.762v7.94h3.118v-7.911c0-2.48 1.431-3.791 3.493-3.791s3.136 1.341 3.136 3.762v7.94zm46.4-14.271h-5.073v-4.328h-3.136v4.328h-2.9v2.838h2.9v6.5c0 3.314 1.282 5.288 4.954 5.288a7.3 7.3 0 0 0 3.881-1.1l-.894-2.659a5.735 5.735 0 0 1-2.748.8c-1.55 0-2.063-.954-2.063-2.385v-6.45h5.073zm26.486-.358a4.209 4.209 0 0 0-3.762 2.092v-1.734h-3.076v14.271h3.106v-8c0-2.385 1.013-3.672 3.046-3.672a5.061 5.061 0 0 1 1.943.358l.954-2.927a6.634 6.634 0 0 0-2.212-.387zm-40.049 1.49a10.67 10.67 0 0 0-5.824-1.49c-3.613 0-5.961 1.735-5.961 4.566 0 2.331 1.729 3.762 4.924 4.209l1.46.209c1.7.238 2.51.686 2.51 1.49 0 1.1-1.133 1.735-3.255 1.735a7.607 7.607 0 0 1-4.769-1.49l-1.413 2.414a10.3 10.3 0 0 0 6.182 1.854c4.119 0 6.51-1.943 6.51-4.656 0-2.51-1.884-3.821-4.984-4.268l-1.461-.209c-1.341-.179-2.42-.447-2.42-1.4 0-1.043 1.013-1.669 2.718-1.669a9.2 9.2 0 0 1 4.447 1.222zm83.171-1.49a4.209 4.209 0 0 0-3.762 2.092v-1.734h-3.076v14.271h3.106v-8c0-2.385 1.013-3.672 3.046-3.672a5.062 5.062 0 0 1 1.943.358l.954-2.927a6.636 6.636 0 0 0-2.212-.387zm-39.99 7.493a7.211 7.211 0 0 0 7.612 7.493 7.476 7.476 0 0 0 5.133-1.7l-1.49-2.51a6.271 6.271 0 0 1-3.732 1.282 4.245 4.245 0 0 1-4.3-4.566 4.265 4.265 0 0 1 4.3-4.566 6.271 6.271 0 0 1 3.732 1.282l1.49-2.51a7.476 7.476 0 0 0-5.133-1.7 7.211 7.211 0 0 0-7.612 7.493zm29.079 0v-7.153h-3.106V41a5.413 5.413 0 0 0-4.507-2.092 7.164 7.164 0 0 0-7.154 7.493 7.154 7.154 0 0 0 7.154 7.493 5.413 5.413 0 0 0 4.507-2.092v1.729h3.106zm-11.553 0a4.32 4.32 0 1 1 8.626 0 4.32 4.32 0 1 1-8.626 0zm-37.472-7.493c-4.173 0-7.106 3.046-7.106 7.493 0 4.536 3.046 7.493 7.314 7.493a8.674 8.674 0 0 0 5.854-2l-1.52-2.3A6.8 6.8 0 0 1 257.5 51.1a3.959 3.959 0 0 1-4.268-3.493h10.6c.03-.387.06-.775.06-1.192 0-4.447-2.778-7.493-6.778-7.493zm-.06 2.778c2 0 3.285 1.252 3.613 3.463h-7.4a3.67 3.67 0 0 1 3.791-3.463zm77.884 4.715V33.55h-3.106v7.463a5.413 5.413 0 0 0-4.507-2.092 7.164 7.164 0 0 0-7.154 7.493 7.154 7.154 0 0 0 7.154 7.493 5.413 5.413 0 0 0 4.507-2.092v1.729h3.106zm-11.541 0a4.32 4.32 0 1 1 8.626 0 4.32 4.32 0 1 1-8.626 0zm-104.858 0v-7.153h-3.106V41a5.413 5.413 0 0 0-4.489-2.075 7.164 7.164 0 0 0-7.154 7.493 7.154 7.154 0 0 0 7.154 7.493 5.413 5.413 0 0 0 4.507-2.092v1.731h3.106zm-11.553 0a4.32 4.32 0 1 1 8.626 0 4.32 4.32 0 1 1-8.626 0z" class="cls-2" data-name="Path 879" transform="translate(-45.97 3079.498)"/>
            <g id="Group_14552" data-name="Group 14552" transform="translate(2)">
                <path id="Subtraction_4" d="M-13240.5-8125a21.315 21.315 0 0 1-13-4.372 21.358 21.358 0 0 0 8.5-17.128 21.356 21.356 0 0 0-8.5-17.125 21.314 21.314 0 0 1 13-4.375 21.358 21.358 0 0 1 15.2 6.3 21.355 21.355 0 0 1 6.3 15.2 21.355 21.355 0 0 1-6.3 15.2 21.359 21.359 0 0 1-15.2 6.3zm-26 0a21.359 21.359 0 0 1-15.2-6.3 21.355 21.355 0 0 1-6.3-15.2 21.355 21.355 0 0 1 6.3-15.2 21.358 21.358 0 0 1 15.2-6.3 21.3 21.3 0 0 1 13 4.375 21.353 21.353 0 0 0-8.5 17.125 21.358 21.358 0 0 0 8.5 17.128 21.3 21.3 0 0 1-13 4.372z" class="cls-2" data-name="Subtraction 4" transform="translate(13336.73 11272.369)"/>
                <path id="Intersection_9" d="M-13262-8147.8a20.219 20.219 0 0 1 7.458-15.83 20.221 20.221 0 0 1 7.453 15.83 20.222 20.222 0 0 1-7.453 15.832 20.22 20.22 0 0 1-7.458-15.832z" class="cls-2" data-name="Intersection 9" transform="translate(13337.775 11273.666)"/>
            </g>
        </g>
    </g>
</svg>
