<svg xmlns="http://www.w3.org/2000/svg" viewBox="0 0 260 88">
    <defs>
        <style>
            .cls-1{fill:none}.cls-2{fill:#fff}
        </style>
    </defs>
    <g id="logo_okcibank" transform="translate(-415 -3762)">
        <rect id="Rectangle_908" width="260" height="88" class="cls-1" data-name="Rectangle 908" rx="16" transform="translate(415 3762)"/>
        <g id="Group_14553" data-name="Group 14553" transform="translate(437.963 3780)">
            <path id="Path_936" d="M11.3 46.735a25.374 25.374 0 0 0 28.461 0c-1.617-2.911-6.792-11.482-14.231-16.98-7.439 5.5-12.614 14.069-14.231 16.98M29.57 26.844c2.911 8.732 9.541 16.333 11.8 18.759a25.316 25.316 0 0 0 8.571-12.128 25.961 25.961 0 0 0 .328-14.875c-3.4.647-13.1 2.911-20.7 8.247m-28.3 6.468a24.573 24.573 0 0 0 8.573 12.126c2.264-2.426 8.732-10.026 11.8-18.759-7.439-5.336-17.3-7.6-20.537-8.247a24.613 24.613 0 0 0 .162 14.877m26.844-11.32c9.218-.162 18.435-4.043 21.508-5.336A25.379 25.379 0 0 0 26.66 0c-.485 3.234-1.294 13.26 1.455 21.993M10.65 4.851a25.292 25.292 0 0 0-8.894 11.8c3.073 1.294 12.29 5.336 21.508 5.336C25.851 13.26 25.042 3.234 24.719 0A25.466 25.466 0 0 0 10.65 4.851" class="cls-2" data-name="Path 936"/>
            <g id="Group_14453" data-name="Group 14453" transform="translate(59.325 16.333)">
                <g id="Group_14452" data-name="Group 14452">
                    <g id="Group_14450" data-name="Group 14450">
                        <path id="Path_937" d="M79.712 22.714l-1.617-.814-.162.323a7.129 7.129 0 0 1-6.792 3.881c-4.528 0-7.115-3.073-7.115-6.792a6.752 6.752 0 0 1 7.115-6.954 6.872 6.872 0 0 1 5.5 2.264 6.748 6.748 0 0 1 .97 1.294l.162.323 1.941-1.132-.162-.323a8.412 8.412 0 0 0-3.4-3.4 10.269 10.269 0 0 0-11.8 1.294 8.54 8.54 0 0 0-2.752 6.478 8.682 8.682 0 0 0 2.264 5.983c1.455 1.779 3.881 2.911 7.277 2.911a9.787 9.787 0 0 0 7.762-3.4c.485-.647.809-1.132 1.132-1.617v-.162z" class="cls-2" data-name="Path 937" transform="translate(-21.334 -10.1)"/>
                        <path id="Path_938" d="M55.782 19.156a9.16 9.16 0 0 0-2.749-6.468 9.822 9.822 0 0 0-6.792-2.588 10.122 10.122 0 0 0-6.792 2.587 8.54 8.54 0 0 0-2.749 6.469 7.147 7.147 0 0 0 .809 3.558l-.323.162.162.323a14.915 14.915 0 0 0 .809 1.294c1.455 2.1 4.043 3.719 7.924 3.719 3.881 0 6.468-1.617 7.924-3.719.323-.485.485-.809.809-1.294l.162-.323a11.036 11.036 0 0 0 .806-3.72zm-2.426.162a6.712 6.712 0 0 1-7.115 6.792c-4.528 0-7.115-3.073-7.115-6.792a7.517 7.517 0 0 1 .809-3.4 9.027 9.027 0 0 0 .809-1.294 7.181 7.181 0 0 1 5.5-2.264 7.181 7.181 0 0 1 5.5 2.264 2.861 2.861 0 0 1 .809 1.294 7.517 7.517 0 0 1 .803 3.4z" class="cls-2" data-name="Path 938" transform="translate(-36.7 -10.1)"/>
                        <path id="Path_939" d="M69.444 10.5h-4.2l-12.133 7.277h-.647V10.5H50.2v16.98h2.264v-7.6h.97l11.966 7.6h4.043L55.7 18.909z" class="cls-2" data-name="Path 939" transform="translate(-28.369 -9.853)"/>
                        <path id="Path_940" d="M74.8 10.5v16.98h2.264V10.5z" class="cls-2" data-name="Path 940" transform="translate(-13.188 -9.853)"/>
                    </g>
                    <g id="Group_14451" data-name="Group 14451" transform="translate(76.328 .647)">
                        <path id="Path_941" d="M105.511 10.5h-2.1L95 27.48h2.426l2.1-4.2h10.026l2.1 4.2h2.426zm3.073 10.835H100.5l4.043-8.247z" class="cls-2" data-name="Path 941" transform="translate(-77.05 -10.5)"/>
                        <path id="Path_942" d="M140.305 10.5h-4.043L124.3 17.454h-1.132V10.5H120.9v16.98h2.264v-7.924h1.455l11.967 7.924h3.558l-13.584-8.894z" class="cls-2" data-name="Path 942" transform="translate(-61.067 -10.5)"/>
                        <path id="Path_943" d="M123.2 10.5v7.115h-12.936V10.5H108v16.98h2.264v-7.924H123.2v7.924h2.264V10.5z" class="cls-2" data-name="Path 943" transform="translate(-69.027 -10.5)"/>
                        <path id="Path_944" d="M96.19 17.777H86.164v-5.013h14.069V10.5H83.9v16.98h12.29a5.047 5.047 0 0 0 5.175-4.851c.162-2.75-2.265-4.852-5.175-4.852zm0 7.277H86.164v-5.336H96.19a2.678 2.678 0 1 1 0 5.336z" class="cls-2" data-name="Path 944" transform="translate(-83.9 -10.5)"/>
                    </g>
                </g>
            </g>
        </g>
    </g>
</svg>
