<svg xmlns="http://www.w3.org/2000/svg" viewBox="0 0 260 88">
    <defs>
        <style>
            .cls-1{fill:none}.cls-2{fill:#fff}
        </style>
    </defs>
    <g id="logo_plasticcard" transform="translate(-691 -3762)">
        <rect id="Rectangle_909" width="260" height="88" class="cls-1" data-name="Rectangle 909" rx="16" transform="translate(691 3762)"/>
        <g id="Group_14549" data-name="Group 14549" transform="translate(558.539 256.558)">
            <g id="Group_14503" data-name="Group 14503" transform="translate(189.461 3523.442)">
                <path id="Subtraction_5" d="M-3534.867-3727.9h-81.911a3.033 3.033 0 0 1-2.283-1.058 3.848 3.848 0 0 1-.94-2.568v-44.8a3.431 3.431 0 0 1 3.223-3.67h81.911a3.431 3.431 0 0 1 3.222 3.67v44.8a3.847 3.847 0 0 1-.94 2.568 3.033 3.033 0 0 1-2.282 1.058zm-7.744-29.363a6.018 6.018 0 0 0-6 6.267 5.847 5.847 0 0 0 6.043 6.177 5.4 5.4 0 0 0 5.1-3.4l-1.477-.805c-.467 1.1-1.322 2.416-2.73 2.416a2.241 2.241 0 0 1-2.193-1.477 7.167 7.167 0 0 1-.448-2.82c0-3.118.888-4.7 2.641-4.7 1.23 0 2.042 1.318 2.416 2.1l1.612-.895a5.355 5.355 0 0 0-4.964-2.862zm-41.313 0a2.552 2.552 0 0 0-2.417 2.014l-3.447 10.16h1.88l.76-2.282h4.208l.716 2.282h4.028l-3.4-10.16c-.504-1.351-1.269-2.013-2.328-2.013zm29.273.269v11.906h3.849v-11.906zm-8.818 1.7v10.2h3.85v-10.2h3.446v-1.7h-10.743v1.7zm-13.115 8.5v1.7h3.134c2.073 0 5.551-.552 5.551-4.251 0-2.849-1.963-3.309-3.541-3.678-1.03-.241-1.92-.45-1.92-1.291 0-.985 1.286-.985 1.835-.985h2.372v-1.7h-3.8a3.889 3.889 0 0 0-4.207 3.805c0 2.622 1.888 3.052 3.554 3.431 1.215.276 2.265.515 2.265 1.582 0 1.28-1.017 1.387-2.06 1.387zm-36.792-16.337v18.038h5.1v-7.385h3.4a7.858 7.858 0 0 0 4.331-1.046 4.566 4.566 0 0 0 1.98-4.1c0-3.8-3.395-5.506-6.759-5.506zm16.651-1.208v15.8c0 1.7.372 3.445 3.134 3.445h3.581v-1.7h-1.208c-1.461 0-1.656-.351-1.656-1.744v-15.8zm44 .851a1.974 1.974 0 0 0-1.97 1.924 1.95 1.95 0 0 0 1.97 1.925 1.9 1.9 0 0 0 1.924-1.925 1.95 1.95 0 0 0-1.924-1.919zm-30.706 14.458h-3.223l1.7-5.014 1.522 5.012zm-23.5-5.82h-1.343v-5.952h1.343a3.042 3.042 0 0 1 3.356 3.178c.002 2.297-1.825 2.778-3.354 2.778z" class="cls-2" data-name="Subtraction 5" transform="translate(3620 3780)"/>
                <g id="Group_14502" data-name="Group 14502" transform="translate(89.968 15.711)">
                    <path id="Path_1086" d="M210.623 55.744A9.382 9.382 0 0 1 201 46.523a9.485 9.485 0 0 1 9.579-9.623 8.612 8.612 0 0 1 7.788 4.207l-2.238 1.611c-1.074-1.969-2.417-3.581-4.789-3.581-3.939 0-4.789 4.431-4.789 7.475 0 3.088 1.388 6.8 5.058 6.8 2.417 0 4.028-1.925 5.058-3.8L218.635 51a8.64 8.64 0 0 1-8.012 4.744z" class="cls-2" data-name="Path 1086" transform="translate(-201 -36.094)"/>
                    <path id="Path_1087" d="M249.164 63.075l-.716-2.283h-4.207l-.761 2.283h-1.88l3.491-10.161a2.572 2.572 0 0 1 2.417-2.014 2.521 2.521 0 0 1 2.327 2.014l3.4 10.161zm-2.73-8.952l-1.7 5.013h3.223z" class="cls-2" data-name="Path 1087" transform="translate(-223.427 -43.828)"/>
                    <path id="Path_1088" d="M277.593 63.406l-2.865-5.953a2.087 2.087 0 0 0 2.283-2.328 1.95 1.95 0 0 0-2.014-2.1c-.134 0-.358.045-.448.045v10.291H270.7V51.5h5.729c2.775 0 4.431 1.567 4.431 3.626a3.011 3.011 0 0 1-2.283 2.909l3.536 5.371z" class="cls-2" data-name="Path 1088" transform="translate(-239.502 -44.159)"/>
                    <path id="Path_1089" d="M304.242 54.347a5.675 5.675 0 0 1-6.043-6.087c0-3.626 2.865-5.819 6.759-5.819.671 0 .716.045 1.388.09V35.1h3.894v19.2h-6zm2.058-10.205a2.364 2.364 0 0 0-.582-.045c-2.6 0-3.223 2.283-3.223 4.252 0 3.4 1.343 4.342 3.357 4.342a1.38 1.38 0 0 0 .448-.045z" class="cls-2" data-name="Path 1089" transform="translate(-254.693 -35.1)"/>
                </g>
            </g>
        </g>
    </g>
</svg>
