<svg xmlns="http://www.w3.org/2000/svg" viewBox="0 0 260 88">
    <defs>
        <style>
            .cls-1{fill:none}.cls-2{fill:#fff}
        </style>
    </defs>
    <g id="logo_tasbank" transform="translate(-967 -3762)">
        <rect id="Rectangle_910" width="260" height="88" class="cls-1" data-name="Rectangle 910" rx="16" transform="translate(967 3762)"/>
        <g id="Group_14548" data-name="Group 14548" transform="translate(1018.001 3776)">
            <path id="Subtraction_2" d="M-11602.2-7692.423a12.953 12.953 0 0 1-7.319-2.369 12.78 12.78 0 0 1-4.739-6.082c-1.012-2.76-.957-5.73-.9-8.6.018-.95.037-2.028.01-3.049.025-.858.01-1.772 0-2.579-.047-2.658-.1-5.407 1.055-7.866a12.782 12.782 0 0 1 9.868-8.029h26.5a14.5 14.5 0 0 1 7.257 4.167 12.144 12.144 0 0 1 3.4 7.591v3.41h-.456c-1.158 0-2.339 0-3.381.006-1.114 0-2.5.007-3.816.007-2.977 0-5.262-.02-7.409-.063l-.044-.093c-.815-1.739-1.83-3.9-3.942-4.265a45.174 45.174 0 0 0-3.977-.152c-.786 0-1.589.012-2.365.022h-.022c-.7.01-1.574.023-2.4.023a3.8 3.8 0 0 0-.306-.012c-2.7 0-4.69 2.69-4.787 5.1a58.679 58.679 0 0 0 .053 7.4 4.946 4.946 0 0 0 4.566 4.616c1.692.03 3.442.062 5.179.062 1.381 0 2.622-.02 3.8-.062 2.1-.106 3.261-2.109 4.194-3.719v-.006h.258c1.231 0 2.517 0 3.55-.006 1.167 0 2.489-.007 3.786-.007 3.069 0 5.422.021 7.627.066v3.148a15.2 15.2 0 0 1-3.986 7.714 13.337 13.337 0 0 1-9.431 3.622h-21.811zm-18.667-.575h-20.841v-9.66c1.173-.028 2.416-.04 4.031-.04h4.365c1.617 0 3.53-.009 5.459-.074a.97.97 0 0 0 .14.01c.508 0 .793-.418 1.069-.823.067-.1.136-.2.206-.291.714-1.088 1.386-2.226 2.035-3.326l.02-.032c.239-.4.511-.864.779-1.312-1.86-.05-3.9-.074-6.428-.074-1.324 0-2.67.006-3.971.012h-.43c-1.337.008-2.893.017-4.435.017-.978 0-1.891 0-2.792-.011h-.05v-.683c1.942 0 3.9.006 5.735.012 1.713.005 3.844.012 5.863.012 2.162 0 4.068-.008 5.826-.023h.131c1.324 0 2.045-1.256 2.681-2.365v-.009c.149-.26.29-.506.435-.729a2.692 2.692 0 0 1 .128-.276v-.006l.031-.061v19.715zm-43.253-.056a5.59 5.59 0 0 0-.617-.023h-.354c-.79 0-1.589-.067-1.915-.869a25.441 25.441 0 0 1-2.729-8.038 30.971 30.971 0 0 1-.21-8.548 33.76 33.76 0 0 1 3.129-10.274 38.847 38.847 0 0 1 6-8.937 2.732 2.732 0 0 1 2.313-.85h.019c.2-.01.407-.021.605-.041 7.327.094 19.032.114 27.562.114 4.532 0 8.057-.006 9.361-.008h.08v17.581h-20.838v-5.929c-.015 0-2.452-.08-5.115-.08-2 0-3.56.045-4.647.133a13.811 13.811 0 0 0-3.428 5.323l-.08.18-.167.373v.039a.067.067 0 0 1 0 .013h-.036a27.138 27.138 0 0 0-.839 3.569h.1c0 .088-.01.2-.02.306V-7708.962a4.66 4.66 0 0 0-.024.371.238.238 0 0 1 0 .026v.026h-.052a24.418 24.418 0 0 0 .314 5.878h.054a26.24 26.24 0 0 0 4.146 9.5c-1.758.065-3.5.074-4.962.074h-3.989a116.17 116.17 0 0 0-3.657.034zm-45.607-.106v-.009c.006-.706.148-17.375-.156-25.653H-11724v-11.652h55.687l-6.823 11.493-12.122.208-.106 25.56z" class="cls-2" data-name="Subtraction 2" transform="translate(11724.524 7731)"/>
            <path id="Subtraction_1" d="M-11566.654-7714.991H-11724V-7731h157.347v16.008zm-116.672-12.231a4.67 4.67 0 0 0-4.932 4.934 4.426 4.426 0 0 0 4.67 4.775 6.309 6.309 0 0 0 2.466-.471l-.209-.895a5.609 5.609 0 0 1-2 .371c-2.267 0-3.619-1.414-3.619-3.781 0-2.4 1.407-3.884 3.672-3.884a4.632 4.632 0 0 1 1.889.368l.315-1a5.719 5.719 0 0 0-2.252-.418zm57.417.159v9.4a15.279 15.279 0 0 0 1.892.1 4.913 4.913 0 0 0 3.307-1.047 2.824 2.824 0 0 0 .786-2.048 2.581 2.581 0 0 0-1.209-2.31 4.452 4.452 0 0 0-2.413-.629 8.451 8.451 0 0 0-1.153.053v-2.519h4.04v-1zm-29.81-.208c-2.565 0-4.357 2.028-4.357 4.931 0 2.812 1.748 4.775 4.252 4.775 2.169 0 4.357-1.525 4.357-4.931 0-2.807-1.709-4.726-4.252-4.775zm-41.881 6.664l1 2.939h1.31l-3.2-9.4h-1.468l-3.205 9.342h1.263l1-2.934v.047zm56-6.456h-1.574l-.736 9.4h1.156l.263-4.042.015-.4.036-1c.034-.964.07-1.961.1-2.752h.054a30.949 30.949 0 0 0 1.1 3.675l1.521 4.461h.944l1.681-4.567.026-.073.018-.049c.46-1.275.857-2.377 1.162-3.446h.053c0 .775.049 1.771.093 2.65l.011.229c.02.39.039.793.053 1.164l.212 4.146h1.206l-.576-9.4h-1.574l-1.628 4.567a42.733 42.733 0 0 0-1 3.148h-.053c-.166-.75-.441-1.6-.708-2.414l-.077-.24a97.667 97.667 0 0 1-.159-.494zm61.2 5.09h.365a2.543 2.543 0 0 1 2.624 2.1c.057.157.114.322.171.484l.022.065a14.81 14.81 0 0 0 .648 1.655h1.313a15.37 15.37 0 0 1-.707-1.748v-.009l-.017-.046c-.1-.284-.207-.577-.323-.874-.5-1.342-1.12-2.213-2.625-2.413l3.569-4.3h-1.468l-3.2 4.2h-.365v-4.2h-1.209v9.4h1.209v-4.3zm-91.639 0h.367a2.547 2.547 0 0 1 2.625 2.1c.059.165.118.335.178.507a15.434 15.434 0 0 0 .66 1.7h1.313a15.757 15.757 0 0 1-.707-1.753l-.025-.071c-.1-.277-.2-.564-.314-.853-.506-1.342-1.121-2.213-2.625-2.413l3.569-4.3h-1.472l-3.2 4.2h-.367v-4.2h-1.207v9.4h1.207v-4.3zm76.153-.106h4.566v4.411h1.209v-9.4h-1.209v3.937h-4.566v-3.937h-1.207v9.4h1.207v-4.41zm-116.932-3.987v8.4h1.206v-8.4h2.887v-1.05h-6.979v1.05zm102.29 5.405h3.357l1 2.939h1.313l-3.2-9.4h-1.468l-3.2 9.4h1.206l1-2.939zm-45.241 2.154c-1.965 0-2.992-1.929-2.992-3.834 0-1.933.9-3.884 2.913-3.884h.079a2.64 2.64 0 0 1 2.244 1.207 4.711 4.711 0 0 1 .748 2.624c-.002 1.935-.923 3.887-2.994 3.887zm32.016-.056a5.656 5.656 0 0 1-1-.05v-3.99h.015c.122 0 .278-.012.431-.023h.027c.167-.013.34-.027.472-.027a3.2 3.2 0 0 1 1.783.474 1.7 1.7 0 0 1 .788 1.521 1.9 1.9 0 0 1-.523 1.365 2.9 2.9 0 0 1-1.996.73zm16.3-3.1h-2.869l.944-2.728c.134-.441.268-.93.4-1.4l.026-.1.05-.183h.054a12.1 12.1 0 0 0 .471 1.733l.927 2.673zm-90.377 0h-2.869l.945-2.728c.139-.46.283-.986.4-1.409l.075-.271h.05a12.326 12.326 0 0 0 .474 1.733l.927 2.673z" class="cls-2" data-name="Subtraction 1" transform="translate(11724 7774.299)"/>
        </g>
    </g>
</svg>
