<svg xmlns="http://www.w3.org/2000/svg" viewBox="0 0 260 88">
    <defs>
        <style>
            .cls-1{fill:none}.cls-2,.cls-3{fill:#fff}.cls-3{fill-rule:evenodd}
        </style>
    </defs>
    <g id="logo_upc" transform="translate(-139 -3866)">
        <rect id="Rectangle_914" width="260" height="88" class="cls-1" data-name="Rectangle 914" rx="16" transform="translate(139 3866)"/>
        <g id="Group_14547" data-name="Group 14547" transform="translate(206 3880.975)">
            <g id="Group_14455" data-name="Group 14455" transform="translate(22.578 39.001)">
                <path id="Path_945" d="M33.767 58.3h1.541v4.087a1 1 0 0 0 1.206 1.206h2.144a1.137 1.137 0 0 0 .871-.268 1.212 1.212 0 0 0 .268-.938V58.3h1.541v4.288A2.53 2.53 0 0 1 40.8 64.4a2.53 2.53 0 0 1-1.809.536h-2.879a2.355 2.355 0 0 1-1.809-.6 2.457 2.457 0 0 1-.6-1.809V58.3z" class="cls-2" data-name="Path 945" transform="translate(-33.7 -58.233)"/>
                <path id="Path_946" d="M54.674 58.3v2.479h.938l2.881-2.479h2.345l-3.886 3.082 4.02 3.551h-2.278l-3.015-2.814h-.938v2.814H53.2V58.3z" class="cls-2" data-name="Path 946" transform="translate(-40.135 -58.233)"/>
                <path id="Path_947" d="M79.77 64.833h-1.608v-1a.915.915 0 0 0-.268-.737 1.775 1.775 0 0 0-.938-.2h-3.015v1.943H72.4V58.2h4.958a2.5 2.5 0 0 1 1.675.469 2.3 2.3 0 0 1 .67 1.876 1.917 1.917 0 0 1-.268 1.139 2.009 2.009 0 0 1-.67.6 4.46 4.46 0 0 1 .8.4 1.068 1.068 0 0 1 .268.8v1.34zm-5.9-5.293v2.01h3.283a.889.889 0 0 0 .67-.2 1.164 1.164 0 0 0 .2-.8.842.842 0 0 0-.938-1z" class="cls-2" data-name="Path 947" transform="translate(-46.472 -58.2)"/>
                <path id="Path_948" d="M92.409 64.833H90.6l3.484-6.633h2.345l3.417 6.633h-1.809l-.871-1.675H93.28zm1.474-2.881H96.5l-1.273-2.479h-.067z" class="cls-2" data-name="Path 948" transform="translate(-52.478 -58.2)"/>
                <path id="Path_949" d="M113.541 58.3v6.633H112V58.3z" class="cls-2" data-name="Path 949" transform="translate(-59.541 -58.233)"/>
                <path id="Path_950" d="M122.8 58.3h2.613l4.02 5.293h.2V58.3h1.541v6.633h-2.68l-3.953-5.293h-.2v5.293H122.8V58.3z" class="cls-2" data-name="Path 950" transform="translate(-63.105 -58.233)"/>
                <path id="Path_951" d="M145.541 58.3v6.633H144V58.3z" class="cls-2" data-name="Path 951" transform="translate(-70.101 -58.233)"/>
                <path id="Path_952" d="M155.709 64.833H153.9l3.484-6.633h2.345l3.417 6.633h-1.809l-.871-1.675h-3.886zm1.474-2.881h2.617l-1.273-2.479h-.067z" class="cls-2" data-name="Path 952" transform="translate(-73.369 -58.2)"/>
                <path id="Path_953" d="M175 58.3h2.613l4.02 5.293h.2V58.3h1.541v6.633h-2.68l-3.953-5.293h-.2v5.293H175z" class="cls-2" data-name="Path 953" transform="translate(-80.332 -58.233)"/>
            </g>
            <g id="Group_14457" data-name="Group 14457" transform="translate(0 53.405)">
                <g id="Group_14456" data-name="Group 14456">
                    <path id="Path_954" d="M1.139 83.384v1.474H0V79.9h3.35a1.885 1.885 0 0 1 1.34.4 2.434 2.434 0 0 1 0 2.68 1.778 1.778 0 0 1-1.34.4zm0-1h1.943a.819.819 0 0 0 .6-.2c.134-.134.134-.335.134-.6a.866.866 0 0 0-.134-.536.819.819 0 0 0-.6-.2H1.139z" class="cls-2" data-name="Path 954" transform="translate(0 -79.766)"/>
                    <path id="Path_955" d="M16.561 84.825h-1.139v-.8a.66.66 0 0 0-.2-.536 1.078 1.078 0 0 0-.737-.2h-2.279v1.474H11V79.8h3.752a2.219 2.219 0 0 1 1.273.335 1.7 1.7 0 0 1 .469 1.407 1.855 1.855 0 0 1-.2.871 3.1 3.1 0 0 1-.469.469 1.3 1.3 0 0 1 .6.335.819.819 0 0 1 .2.6v1zM12.139 80.8v1.541h2.479a.659.659 0 0 0 .536-.2 1.424 1.424 0 0 0 0-1.206.659.659 0 0 0-.536-.2h-2.479z" class="cls-2" data-name="Path 955" transform="translate(-3.63 -79.733)"/>
                    <path id="Path_956" d="M28.562 83.083a1.885 1.885 0 0 1-.4 1.34 1.961 1.961 0 0 1-1.407.4h-2.146a1.961 1.961 0 0 1-1.407-.4 1.706 1.706 0 0 1-.4-1.273v-1.541a1.962 1.962 0 0 1 .4-1.407 1.961 1.961 0 0 1 1.407-.4h2.144a2.3 2.3 0 0 1 1.34.335 1.961 1.961 0 0 1 .4 1.407v1.541zm-4.556-.134a.889.889 0 0 0 .2.67 1.078 1.078 0 0 0 .737.2h1.541a1.562 1.562 0 0 0 .737-.134.889.889 0 0 0 .2-.67v-1.34a.77.77 0 0 0-.938-.938h-1.539a1.078 1.078 0 0 0-.737.2.968.968 0 0 0-.2.737z" class="cls-2" data-name="Path 956" transform="translate(-7.525 -79.733)"/>
                    <path id="Path_957" d="M39.523 83.05h1.139a2.023 2.023 0 0 1-.335 1.34c-.2.268-.737.335-1.407.335h-2.211a1.962 1.962 0 0 1-1.407-.4 1.885 1.885 0 0 1-.4-1.34v-1.409a2.042 2.042 0 0 1 .4-1.474 2.042 2.042 0 0 1 1.474-.4h1.943a2.723 2.723 0 0 1 1.407.335 1.718 1.718 0 0 1 .536 1.407h-1.139c0-.268-.067-.469-.2-.536a1.078 1.078 0 0 0-.737-.2h-1.475c-.4 0-.67.067-.737.2a.968.968 0 0 0-.2.737v1.206a1.078 1.078 0 0 0 .2.737c.134.134.4.134.737.134h1.474a1.793 1.793 0 0 0 .737-.134c.134-.069.201-.27.201-.538z" class="cls-2" data-name="Path 957" transform="translate(-11.518 -79.7)"/>
                    <path id="Path_958" d="M47.3 84.858V79.9h5.025v.938h-3.886v1.072h3.685v.871h-3.685v1.139h3.819v.938z" class="cls-2" data-name="Path 958" transform="translate(-15.61 -79.766)"/>
                    <path id="Path_959" d="M62.319 79.9a2.07 2.07 0 0 1 1.273.335 1.319 1.319 0 0 1 .4 1.072h-1.137a.394.394 0 0 0-.134-.335.781.781 0 0 0-.469-.134h-1.943a.57.57 0 0 0-.4.938c.067.067.2.067.4.067h2.144a2.422 2.422 0 0 1 1.206.2c.268.2.4.6.4 1.273a1.38 1.38 0 0 1-.4 1.139 1.626 1.626 0 0 1-1.206.335h-2.345a2.07 2.07 0 0 1-1.273-.335 1.3 1.3 0 0 1-.335-1.072h1.139a.512.512 0 0 0 .134.335.952.952 0 0 0 .4.134h1.943a.866.866 0 0 0 .536-.134c.134-.067.134-.268.134-.4a.566.566 0 0 0-.134-.4 1.338 1.338 0 0 0-.6-.134h-1.743a2.475 2.475 0 0 1-1.407-.268 1.445 1.445 0 0 1-.4-1.206 1.319 1.319 0 0 1 .4-1.072 2.4 2.4 0 0 1 1.407-.335z" class="cls-2" data-name="Path 959" transform="translate(-19.306 -79.766)"/>
                    <path id="Path_960" d="M74.319 79.9a2.07 2.07 0 0 1 1.273.335 1.319 1.319 0 0 1 .4 1.072h-1.137a.394.394 0 0 0-.134-.335.781.781 0 0 0-.469-.134h-1.943a.57.57 0 0 0-.4.938c.067.067.2.067.4.067h2.144a2.422 2.422 0 0 1 1.206.2c.268.2.4.6.4 1.273a1.38 1.38 0 0 1-.4 1.139 1.626 1.626 0 0 1-1.206.335h-2.345a2.07 2.07 0 0 1-1.273-.335 1.3 1.3 0 0 1-.335-1.072h1.139a.512.512 0 0 0 .134.335.952.952 0 0 0 .4.134h1.943a.866.866 0 0 0 .536-.134c.134-.067.134-.268.134-.4a.566.566 0 0 0-.134-.4 1.338 1.338 0 0 0-.6-.134h-1.743a2.475 2.475 0 0 1-1.407-.268 1.445 1.445 0 0 1-.4-1.206 1.319 1.319 0 0 1 .4-1.072 2.4 2.4 0 0 1 1.407-.335z" class="cls-2" data-name="Path 960" transform="translate(-23.267 -79.766)"/>
                    <path id="Path_961" d="M83.939 79.9v4.958H82.8V79.9z" class="cls-2" data-name="Path 961" transform="translate(-27.326 -79.766)"/>
                    <path id="Path_962" d="M88.5 79.9h1.943l3.015 3.953h.134V79.9h1.139v4.958h-2.01L89.773 80.9h-.134v3.953H88.5z" class="cls-2" data-name="Path 962" transform="translate(-29.207 -79.766)"/>
                    <path id="Path_963" d="M104.414 81.844h3.086v1.34a1.445 1.445 0 0 1-.4 1.206 1.893 1.893 0 0 1-1.34.335h-2.345a1.885 1.885 0 0 1-1.34-.4 1.716 1.716 0 0 1-.469-1.273v-1.543a1.507 1.507 0 0 1 1.809-1.809h2.345a2.361 2.361 0 0 1 1.34.268 1.355 1.355 0 0 1 .469 1.206h-1.139a.405.405 0 0 0-.2-.4 1.793 1.793 0 0 0-.737-.134h-1.742a.77.77 0 0 0-.938.938v1.273a.889.889 0 0 0 .2.67c.134.134.4.134.737.134h1.943a1.338 1.338 0 0 0 .6-.134c.134-.067.134-.2.134-.4v-.536h-1.943v-.737z" class="cls-2" data-name="Path 963" transform="translate(-33.53 -79.7)"/>
                    <path id="Path_964" d="M124.623 83.05h1.139a2.023 2.023 0 0 1-.335 1.34c-.2.268-.737.335-1.407.335h-2.211a1.962 1.962 0 0 1-1.407-.4 1.885 1.885 0 0 1-.4-1.34v-1.409a1.54 1.54 0 0 1 1.876-1.876h1.943a2.723 2.723 0 0 1 1.407.335 1.718 1.718 0 0 1 .536 1.407h-1.139c0-.268-.067-.469-.2-.536a1.078 1.078 0 0 0-.737-.2h-1.474c-.4 0-.67.067-.737.2a.968.968 0 0 0-.2.737v1.206a1.078 1.078 0 0 0 .2.737c.134.134.4.134.737.134h1.474a1.793 1.793 0 0 0 .737-.134c.131-.067.198-.268.198-.536z" class="cls-2" data-name="Path 964" transform="translate(-39.603 -79.7)"/>
                    <path id="Path_965" d="M132.4 84.858V79.9h5.025v.938h-3.819v1.072h3.685v.871h-3.685v1.139h3.819v.938z" class="cls-2" data-name="Path 965" transform="translate(-43.695 -79.766)"/>
                    <path id="Path_966" d="M143.7 79.9h1.943l3.015 3.953h.134V79.9h1.139v4.958h-2.01l-2.948-3.958h-.134v3.953H143.7z" class="cls-2" data-name="Path 966" transform="translate(-47.424 -79.766)"/>
                    <path id="Path_967" d="M156.7 79.9h5.293v1h-2.077v3.953h-1.139V80.9H156.7z" class="cls-2" data-name="Path 967" transform="translate(-51.714 -79.766)"/>
                    <path id="Path_968" d="M168 84.858V79.9h5.025v.938h-3.819v1.072h3.685v.871h-3.685v1.139h3.819v.938z" class="cls-2" data-name="Path 968" transform="translate(-55.444 -79.766)"/>
                    <path id="Path_969" d="M184.794 84.825h-1.139v-.8a.659.659 0 0 0-.2-.536 1.078 1.078 0 0 0-.737-.2h-2.278v1.474h-1.14V79.8h3.752a2.219 2.219 0 0 1 1.273.335 1.7 1.7 0 0 1 .469 1.407 1.855 1.855 0 0 1-.2.871 3.1 3.1 0 0 1-.469.469 1.3 1.3 0 0 1 .6.335.819.819 0 0 1 .2.6v1zm-4.422-4.02v1.541h2.479a.659.659 0 0 0 .536-.2 1.424 1.424 0 0 0 0-1.206.659.659 0 0 0-.536-.2h-2.479z" class="cls-2" data-name="Path 969" transform="translate(-59.173 -79.733)"/>
                </g>
            </g>
            <path id="Path_970" d="M11.59 23.524c.2-2.077.469-4.422 2.345-6.5-9.38-1-8.71-7.1-5.628-9.782 2.881-2.546 8.777-1.608 9.179 6.432A13.585 13.585 0 0 1 23.85 11.8C20.836-1.466 8.374-2.27 3.081 3.224c-4.958 5.159-4.355 16.276 8.509 20.3z" class="cls-3" data-name="Path 970" transform="translate(-.066)"/>
            <path id="Path_971" d="M0 22.627v20.3c.737 7.437 5.159 9.581 9.983 9.782 4.757.2 10.05-2.345 10.117-9.782v-9.714c.268-8.174 7.7-6.7 9.38-3.752 1.675 2.881-1 9.849-8.375 5.628v7.437c14.673 4.221 18.29-10.184 14.2-17.084C30.953 18.138 14.4 16.53 13 31.6v10.322c0 5.427-6.1 5.092-5.628 0V29.863C4.489 28.657 2.077 26.647 0 22.627z" class="cls-3" data-name="Path 971" transform="translate(0 -6.607)"/>
        </g>
    </g>
</svg>
