<svg xmlns="http://www.w3.org/2000/svg" viewBox="0 0 426 64">
    <defs>
        <style>
            .cls-1{fill:#fff}.cls-2{fill:none}
        </style>
    </defs>
    <g id="logo_dyvotech_large" transform="translate(-29.665 -192.996)">
        <g id="Group_1" data-name="Group 1" transform="translate(31.665 197.996)">
            <path id="Path_1" d="M304.7 10.842h-16.5V1.2h28.4v51.448h-11.9z" class="cls-1" data-name="Path 1" transform="translate(-71.105 -.296)"/>
            <path id="Path_5" d="M0 1.2h23.352a33.324 33.324 0 0 1 14.84 3.164A23.8 23.8 0 0 1 48.21 13.4a24.94 24.94 0 0 1 3.54 13.559 25.8 25.8 0 0 1-3.54 13.559 24.817 24.817 0 0 1-10.019 9.042 34.371 34.371 0 0 1-14.84 3.088H0zm22.749 41.656c5.122 0 9.265-1.431 12.278-4.294 3.088-2.862 4.595-6.779 4.595-11.676s-1.507-8.813-4.595-11.676-7.156-4.294-12.278-4.294H11.9V42.78h10.849z" class="cls-1" data-name="Path 5" transform="translate(0 -.296)"/>
            <path id="Path_6" d="M99.988 34.419v18.229h-11.9V34.269L68.2 1.2h12.655l13.71 22.824L108.274 1.2h11.751z" class="cls-1" data-name="Path 6" transform="translate(-16.826 -.296)"/>
            <path id="Path_7" d="M188.395 1.2L166.1 52.648h-11.754L132.2 1.2h12.881l15.668 36.76L176.643 1.2h11.751z" class="cls-1" data-name="Path 7" transform="translate(-32.617 -.296)"/>
            <path id="Path_8" d="M221.11 49.791a26.619 26.619 0 0 1-10.094-9.491 26.173 26.173 0 0 1-3.616-13.634 26.173 26.173 0 0 1 3.616-13.634A25.032 25.032 0 0 1 221.11 3.54 30.658 30.658 0 0 1 235.573 0a29.254 29.254 0 0 1 14.387 3.465 26.62 26.62 0 0 1 10.094 9.491 25.538 25.538 0 0 1 3.691 13.634 25.679 25.679 0 0 1-13.785 23.126 29.458 29.458 0 0 1-14.388 3.465 30.573 30.573 0 0 1-14.462-3.39zm22.674-8.813a15 15 0 0 0 5.8-5.875 16.793 16.793 0 0 0 2.109-8.512 16.793 16.793 0 0 0-2.109-8.512 15.515 15.515 0 0 0-5.8-5.876 16.068 16.068 0 0 0-8.211-2.109 15.876 15.876 0 0 0-8.211 2.109 15 15 0 0 0-5.8 5.876 16.793 16.793 0 0 0-2.109 8.512 16.793 16.793 0 0 0 2.109 8.512 15.514 15.514 0 0 0 5.8 5.875 16.068 16.068 0 0 0 8.211 2.109 15.876 15.876 0 0 0 8.21-2.109z" class="cls-1" data-name="Path 8" transform="translate(-51.17)"/>
            <path id="Path_9" d="M334.9 1.2h9.642v9.642H334.9z" class="cls-1" data-name="Path 9" transform="translate(-82.627 -.296)"/>
            <path id="Path_2" d="M400.448 43.082v9.567H360.6V1.2h38.869v9.567h-27.043v11.148h23.879v9.265h-23.879v11.9z" class="cls-1" data-name="Path 2" transform="translate(-88.968 -.296)"/>
            <path id="Path_3" d="M435.234 49.791a25.317 25.317 0 0 1-10.018-9.491 26.25 26.25 0 0 1-3.616-13.71 26.25 26.25 0 0 1 3.616-13.71 24.832 24.832 0 0 1 10.018-9.49 32.247 32.247 0 0 1 26.44-1.055 23.876 23.876 0 0 1 9.039 6.779l-7.607 7.086a16.459 16.459 0 0 0-12.956-6.026 16.8 16.8 0 0 0-8.512 2.109 15.189 15.189 0 0 0-5.875 5.876 16.793 16.793 0 0 0-2.109 8.512 16.793 16.793 0 0 0 2.109 8.512 15.189 15.189 0 0 0 5.875 5.876 16.8 16.8 0 0 0 8.512 2.109 16.408 16.408 0 0 0 12.956-6.1l7.608 7.081A24.123 24.123 0 0 1 461.6 51a30.026 30.026 0 0 1-12.128 2.335 31.585 31.585 0 0 1-14.238-3.544z" class="cls-1" data-name="Path 3" transform="translate(-104.018)"/>
            <path id="Path_4" d="M544.555 1.2v51.448h-11.9V31.557H509.3v21.091h-11.9V1.2h11.9v20.263h23.352V1.2z" class="cls-1" data-name="Path 4" transform="translate(-122.72 -.296)"/>
        </g>
        <path id="Rectangle_8" d="M0 0h426v64H0z" class="cls-2" data-name="Rectangle 8" transform="translate(29.665 192.996)"/>
    </g>
</svg>
