<svg xmlns="http://www.w3.org/2000/svg" viewBox="0 0 64 64">
    <defs>
        <style>
            .cls-1{fill:#fff}.cls-2{fill:#0b0c0e}
        </style>
    </defs>
    <g id="icon_01_medium" transform="translate(-4781 196)">
        <rect id="Rectangle_846" width="64" height="64" class="cls-1" data-name="Rectangle 846" rx="32" transform="translate(4781 -196)"/>
        <g id="Group_14478" data-name="Group 14478" transform="translate(4793 -174)">
            <g id="Group_14477" data-name="Group 14477">
                <g id="Group_14475" data-name="Group 14475" transform="translate(23.398 .333)">
                    <g id="Group_14474" data-name="Group 14474">
                        <g id="Group_14473" data-name="Group 14473">
                            <g id="Group_14472" data-name="Group 14472">
                                <path id="Path_1008" d="M143.349 90.038H137V86.3h10.931v19.814h-4.582z" class="cls-2" data-name="Path 1008" transform="translate(-137 -86.3)"/>
                            </g>
                        </g>
                    </g>
                </g>
                <g id="Group_14476" data-name="Group 14476">
                    <path id="Path_1009" d="M50.874 104.149a9.861 9.861 0 0 1-3.866-3.661A10.127 10.127 0 0 1 45.6 95.24a9.9 9.9 0 0 1 5.274-8.909 12.257 12.257 0 0 1 11.11 0 10.262 10.262 0 0 1 3.866 14.157 10.036 10.036 0 0 1-3.866 3.661 12.257 12.257 0 0 1-11.11 0zm8.7-3.379a5.713 5.713 0 0 0 2.226-2.253 6.607 6.607 0 0 0 .8-3.277 6.539 6.539 0 0 0-.794-3.277 5.713 5.713 0 0 0-2.227-2.253 6.286 6.286 0 0 0-3.174-.794 6.559 6.559 0 0 0-3.174.794A5.713 5.713 0 0 0 51 91.963a6.607 6.607 0 0 0-.794 3.277A6.539 6.539 0 0 0 51 98.517a5.713 5.713 0 0 0 2.227 2.253 6.286 6.286 0 0 0 3.174.794 5.975 5.975 0 0 0 3.177-.794z" class="cls-2" data-name="Path 1009" transform="translate(-45.6 -85)"/>
                </g>
            </g>
            <path id="Path_1010" d="M189.9 86.3h3.712v3.738H189.9z" class="cls-2" data-name="Path 1010" transform="translate(-152.959 -85.967)"/>
        </g>
    </g>
</svg>
