<svg xmlns="http://www.w3.org/2000/svg" viewBox="0 0 40 40">
    <defs>
        <style>
            .cls-1{fill:#e4e4e4}.cls-2{fill:#14181d;opacity:.8}
        </style>
    </defs>
    <g id="icon_phone" transform="translate(-139 -5637)">
        <circle id="bg" cx="20" cy="20" r="20" class="cls-1" transform="translate(139 5637)"/>
        <path id="icon" d="M12.859 16a6.872 6.872 0 0 1-2.354-.5 17.66 17.66 0 0 1-5.939-4.066A17.673 17.673 0 0 1 .5 5.494c-.665-1.763-.667-3.209 0-3.871C.591 1.527 2.075-.031 2.98 0a2.624 2.624 0 0 1 1.847 1.185c.638.794 1.742 2.36 1.742 2.36S5.5 4.6 4.709 5.376C4.553 5.532 4.258 6.255 7 9a15.213 15.213 0 0 0 2.269 1.948c.384.25 1.071.627 1.353.345.624-.632 1.9-1.913 1.9-1.913s1.116.852 2.288 1.795A2.622 2.622 0 0 1 16 13.021c.037.9-1.527 2.39-1.622 2.485a2.1 2.1 0 0 1-1.519.494z" class="cls-2" transform="translate(151 5649)"/>
    </g>
</svg>
